<svg xmlns="http://www.w3.org/2000/svg" viewBox="0 0 60 60">
  <polygon points="30,4 52,17 52,43 30,56 8,43 8,17" stroke="#6366F1" stroke-width="1" fill="none"/>
  <polygon points="30,14 44,22 44,38 30,46 16,38 16,22" stroke="#a5b4fc" stroke-width="0.7" fill="none"/>
  <line x1="30" y1="14" x2="30" y2="30" stroke="#a5b4fc" stroke-width="0.7"/>
  <line x1="44" y1="22" x2="30" y2="30" stroke="#a5b4fc" stroke-width="0.7"/>
  <line x1="44" y1="38" x2="30" y2="30" stroke="#a5b4fc" stroke-width="0.7"/>
  <line x1="30" y1="46" x2="30" y2="30" stroke="#a5b4fc" stroke-width="0.7"/>
  <line x1="16" y1="38" x2="30" y2="30" stroke="#a5b4fc" stroke-width="0.7"/>
  <line x1="16" y1="22" x2="30" y2="30" stroke="#a5b4fc" stroke-width="0.7"/>
  <circle cx="30" cy="14" r="2" fill="#a5b4fc"/>
  <circle cx="44" cy="22" r="2" fill="#a5b4fc"/>
  <circle cx="44" cy="38" r="2" fill="#a5b4fc"/>
  <circle cx="30" cy="46" r="2" fill="#a5b4fc"/>
  <circle cx="16" cy="38" r="2" fill="#a5b4fc"/>
  <circle cx="16" cy="22" r="2" fill="#a5b4fc"/>
  <circle cx="30" cy="30" r="3.5" fill="#6366F1"/>
</svg>
